0
SECTION
2
HEADER
9
$INSUNITS
70
4
9
$ACADVER
1
AC1014
9
$HANDSEED
5
FFFF
0
ENDSEC
0
SECTION
2
TABLES
0
TABLE
2
VPORT
5
8
100
AcDbSymbolTable
0
ENDTAB
0
TABLE
2
LTYPE
5
5
100
AcDbSymbolTable
0
LTYPE
5
14
100
AcDbSymbolTableRecord
100
AcDbLinetypeTableRecord
2
BYBLOCK
70
0
0
LTYPE
5
15
100
AcDbSymbolTableRecord
100
AcDbLinetypeTableRecord
2
BYLAYER
70
0
0
LTYPE
5
16
100
AcDbSymbolTableRecord
100
AcDbLinetypeTableRecord
2
DASHED
70
0
3
Dashed __ __ __ __ __ __ __ __ __ __ __ __ __ _
72
65
73
2
40
0.75
49
0.5
74
0
49
-0.25
74
0
0
ENDTAB
0
TABLE
2
LAYER
5
2
100
AcDbSymbolTable
70
2
0
LAYER
5
50
100
AcDbSymbolTableRecord
100
AcDbLayerTableRecord
2
0
70
0
62
7
6
CONTINUOUS
0
ENDTAB
0
TABLE
2
STYLE
5
3
100
AcDbSymbolTable
70
1
0
STYLE
5
11
100
AcDbSymbolTableRecord
100
AcDbTextStyleTableRecord
2
STANDARD
70
0
0
ENDTAB
0
TABLE
2
VIEW
5
6
100
AcDbSymbolTable
70
0
0
ENDTAB
0
TABLE
2
UCS
5
7
100
AcDbSymbolTable
70
0
0
ENDTAB
0
TABLE
2
APPID
5
9
100
AcDbSymbolTable
70
2
0
APPID
5
12
100
AcDbSymbolTableRecord
100
AcDbRegAppTableRecord
2
ACAD
70
0
0
ENDTAB
0
TABLE
2
DIMSTYLE
5
A
100
AcDbSymbolTable
70
1
0
ENDTAB
0
TABLE
2
BLOCK_RECORD
5
1
100
AcDbSymbolTable
70
1
0
BLOCK_RECORD
5
1F
100
AcDbSymbolTableRecord
100
AcDbBlockTableRecord
2
*MODEL_SPACE
0
BLOCK_RECORD
5
1B
100
AcDbSymbolTableRecord
100
AcDbBlockTableRecord
2
*PAPER_SPACE
0
ENDTAB
0
ENDSEC
0
SECTION
2
BLOCKS
0
BLOCK
5
20
100
AcDbEntity
100
AcDbBlockBegin
2
*MODEL_SPACE
0
ENDBLK
5
21
100
AcDbEntity
100
AcDbBlockEnd
0
BLOCK
5
1C
100
AcDbEntity
100
AcDbBlockBegin
2
*PAPER_SPACE
0
ENDBLK
5
1D
100
AcDbEntity
100
AcDbBlockEnd
0
ENDSEC
0
SECTION
2
ENTITIES
0
LWPOLYLINE
5
100
100
AcDbEntity
8
0
100
AcDbPolyline
90
8
70
1
43
0.0
10
-123.06759834289551
20
-325.94451904296932
42
0.41421356237310125
10
-118.06759834289551
20
-330.94451904296932
10
31.932401657104492
20
-330.94451904296932
42
0.41421356237310181
10
36.932401657104464
20
-325.94451904296932
10
36.932401657104492
20
-175.94451904296932
42
0.41421356237309404
10
31.932401657104492
20
-170.94451904296932
10
-118.06759834289551
20
-170.94451904296929
42
0.41421356237308982
10
-123.06759834289552
20
-175.94451904296926
0
CIRCLE
5
101
100
AcDbEntity
8
0
100
AcDbCircle
10
-102.15989747294824
20
-318.47148594950431
30
0
40
1.5000000000000036
210
2.5496832588410648e-44
220
-1.4142148413938446e-73
230
1
0
CIRCLE
5
102
100
AcDbEntity
8
0
100
AcDbCircle
10
-102.15989747294826
20
-324.47148594950426
30
0
40
1.5000000000000036
210
2.5496832588410648e-44
220
-1.4142148413938446e-73
230
1
0
CIRCLE
5
103
100
AcDbEntity
8
0
100
AcDbCircle
10
-73.159897472948614
20
-312.47148594950426
30
0
40
1.4999999999999947
210
2.5496832588410638e-44
220
-1.4142148413938442e-73
230
1
0
CIRCLE
5
104
100
AcDbEntity
8
0
100
AcDbCircle
10
-12.975299212842355
20
-189.4175521364343
30
0
40
1.4999999999999947
210
1.1619949648238061e-44
220
-2.9373211553157974e-74
230
1
0
CIRCLE
5
105
100
AcDbEntity
8
0
100
AcDbCircle
10
-102.1598974729483
20
-189.4175521364343
30
0
40
1.5000000000000036
210
1.2446030555722283e-60
220
-2.1466335810522106e-90
230
1
0
CIRCLE
5
106
100
AcDbEntity
8
0
100
AcDbCircle
10
-120.56759834289551
20
-210.94451904296929
30
0
40
1.5500000000000114
210
1.2446030555722283e-60
220
-2.1466335810522106e-90
230
1
0
CIRCLE
5
107
100
AcDbEntity
8
0
100
AcDbCircle
10
-120.56759834289551
20
-220.94451904296929
30
0
40
1.5499999999999934
210
2.6051937293176836e-60
220
7.8886090522101198e-31
230
1
0
CIRCLE
5
108
100
AcDbEntity
8
0
100
AcDbCircle
10
34.432401657104492
20
-210.94451904296929
30
0
40
1.5500000000000114
210
1.2446030555722283e-60
220
-2.1466335810522106e-90
230
1
0
CIRCLE
5
109
100
AcDbEntity
8
0
100
AcDbCircle
10
34.432401657104492
20
-220.94451904296929
30
0
40
1.5499999999999934
210
2.6051937293176836e-60
220
7.8886090522101198e-31
230
1
0
CIRCLE
5
110
100
AcDbEntity
8
0
100
AcDbCircle
10
-120.56759834289551
20
-290.94451904296932
30
0
40
1.5500000000000114
210
1.2446030555722283e-60
220
-2.1466335810522106e-90
230
1
0
CIRCLE
5
111
100
AcDbEntity
8
0
100
AcDbCircle
10
-120.56759834289551
20
-280.94451904296926
30
0
40
1.5499999999999934
210
2.6051937293176836e-60
220
7.8886090522101198e-31
230
1
0
CIRCLE
5
112
100
AcDbEntity
8
0
100
AcDbCircle
10
34.432401657104492
20
-290.94451904296932
30
0
40
1.5500000000000114
210
1.2446030555722283e-60
220
-2.1466335810522106e-90
230
1
0
CIRCLE
5
113
100
AcDbEntity
8
0
100
AcDbCircle
10
34.432401657104492
20
-280.94451904296926
30
0
40
1.5499999999999934
210
2.6051937293176836e-60
220
7.8886090522101198e-31
230
1
0
CIRCLE
5
114
100
AcDbEntity
8
0
100
AcDbCircle
10
-73.159897472948714
20
-183.41755213643432
30
0
40
1.4999999999999947
210
-9.6400836422775974e-45
220
-2.0216434815526901e-74
230
1
0
CIRCLE
5
115
100
AcDbEntity
8
0
100
AcDbCircle
10
-73.159897472948728
20
-177.41755213643432
30
0
40
1.4999999999999947
210
-9.6400836422775974e-45
220
-2.0216434815526901e-74
230
1
0
CIRCLE
5
116
100
AcDbEntity
8
0
100
AcDbCircle
10
-102.15989747294824
20
-183.41755213643432
30
0
40
1.5000000000000036
210
-9.6400836422775962e-45
220
-2.0216434815526897e-74
230
1
0
CIRCLE
5
117
100
AcDbEntity
8
0
100
AcDbCircle
10
-73.159897472948614
20
-189.4175521364343
30
0
40
1.4999999999999947
210
-9.6400836422775974e-45
220
-2.0216434815526901e-74
230
1
0
CIRCLE
5
118
100
AcDbEntity
8
0
100
AcDbCircle
10
-102.15989747294826
20
-177.41755213643432
30
0
40
1.5000000000000036
210
-9.6400836422775962e-45
220
-2.0216434815526897e-74
230
1
0
CIRCLE
5
119
100
AcDbEntity
8
0
100
AcDbCircle
10
-73.159897472948728
20
-324.47148594950426
30
0
40
1.4999999999999947
210
2.5496832588410638e-44
220
-1.4142148413938442e-73
230
1
0
CIRCLE
5
120
100
AcDbEntity
8
0
100
AcDbCircle
10
-73.159897472948714
20
-318.47148594950431
30
0
40
1.4999999999999947
210
2.5496832588410638e-44
220
-1.4142148413938442e-73
230
1
0
CIRCLE
5
121
100
AcDbEntity
8
0
100
AcDbCircle
10
-102.1598974729483
20
-312.47148594950437
30
0
40
1.5000000000000036
210
1.2446030555722283e-60
220
-2.1466335810522106e-90
230
1
0
CIRCLE
5
122
100
AcDbEntity
8
0
100
AcDbCircle
10
16.02470078715724
20
-177.41755213643432
30
0
40
1.5000000000000036
210
2.5496831685620826e-44
220
-1.4142147913194379e-73
230
1
0
CIRCLE
5
123
100
AcDbEntity
8
0
100
AcDbCircle
10
16.024700787157222
20
-183.41755213643432
30
0
40
1.5000000000000036
210
2.5496831685620826e-44
220
-1.4142147913194379e-73
230
1
0
CIRCLE
5
124
100
AcDbEntity
8
0
100
AcDbCircle
10
-12.975299212842284
20
-177.41755213643432
30
0
40
1.4999999999999947
210
2.5496831685620836e-44
220
-1.4142147913194384e-73
230
1
0
CIRCLE
5
125
100
AcDbEntity
8
0
100
AcDbCircle
10
-12.975299212842302
20
-183.41755213643432
30
0
40
1.4999999999999947
210
2.5496831685620836e-44
220
-1.4142147913194384e-73
230
1
0
CIRCLE
5
126
100
AcDbEntity
8
0
100
AcDbCircle
10
16.024700787157293
20
-189.4175521364343
30
0
40
1.5000000000000036
210
1.2446030555722283e-60
220
-2.1466335810522106e-90
230
1
0
CIRCLE
5
127
100
AcDbEntity
8
0
100
AcDbCircle
10
16.024700787157222
20
-318.47148594950431
30
0
40
1.5000000000000036
210
-9.6400845450674188e-45
220
-2.0216436708787609e-74
230
1
0
CIRCLE
5
128
100
AcDbEntity
8
0
100
AcDbCircle
10
-12.975299212842408
20
-312.47148594950426
30
0
40
1.4999999999999947
210
-9.6400845450674138e-45
220
-2.0216436708787597e-74
230
1
0
CIRCLE
5
129
100
AcDbEntity
8
0
100
AcDbCircle
10
-12.975299212842284
20
-324.47148594950426
30
0
40
1.4999999999999947
210
-9.6400845450674138e-45
220
-2.0216436708787597e-74
230
1
0
CIRCLE
5
130
100
AcDbEntity
8
0
100
AcDbCircle
10
16.02470078715724
20
-324.47148594950426
30
0
40
1.5000000000000036
210
-9.6400845450674188e-45
220
-2.0216436708787609e-74
230
1
0
CIRCLE
5
131
100
AcDbEntity
8
0
100
AcDbCircle
10
16.024700787157293
20
-312.47148594950437
30
0
40
1.5000000000000036
210
1.2446030555722283e-60
220
-2.1466335810522106e-90
230
1
0
CIRCLE
5
132
100
AcDbEntity
8
0
100
AcDbCircle
10
-12.975299212842311
20
-318.47148594950431
30
0
40
1.4999999999999947
210
-9.6400845450674138e-45
220
-2.0216436708787597e-74
230
1
0
CIRCLE
5
133
100
AcDbEntity
8
0
100
AcDbCircle
10
-43.067598342895778
20
-250.94451904296935
30
0
40
17.500000000000007
210
4.901051684228208e-45
220
7.8886090522101181e-31
230
1
0
ENDSEC
0
SECTION
2
OBJECTS
0
DICTIONARY
5
C
100
AcDbDictionary
3
ACAD_GROUP
350
D
3
ACAD_MLINESTYLE
350
17
0
DICTIONARY
5
D
100
AcDbDictionary
0
DICTIONARY
5
1A
330
C
100
AcDbDictionary
0
DICTIONARY
5
17
100
AcDbDictionary
0
ENDSEC
0
EOF
