0
SECTION
2
HEADER
9
$INSUNITS
70
4
9
$ACADVER
1
AC1014
9
$HANDSEED
5
FFFF
0
ENDSEC
0
SECTION
2
TABLES
0
TABLE
2
VPORT
5
8
100
AcDbSymbolTable
0
ENDTAB
0
TABLE
2
LTYPE
5
5
100
AcDbSymbolTable
0
LTYPE
5
14
100
AcDbSymbolTableRecord
100
AcDbLinetypeTableRecord
2
BYBLOCK
70
0
0
LTYPE
5
15
100
AcDbSymbolTableRecord
100
AcDbLinetypeTableRecord
2
BYLAYER
70
0
0
LTYPE
5
16
100
AcDbSymbolTableRecord
100
AcDbLinetypeTableRecord
2
DASHED
70
0
3
Dashed __ __ __ __ __ __ __ __ __ __ __ __ __ _
72
65
73
2
40
0.75
49
0.5
74
0
49
-0.25
74
0
0
ENDTAB
0
TABLE
2
LAYER
5
2
100
AcDbSymbolTable
70
2
0
LAYER
5
50
100
AcDbSymbolTableRecord
100
AcDbLayerTableRecord
2
0
70
0
62
7
6
CONTINUOUS
0
ENDTAB
0
TABLE
2
STYLE
5
3
100
AcDbSymbolTable
70
1
0
STYLE
5
11
100
AcDbSymbolTableRecord
100
AcDbTextStyleTableRecord
2
STANDARD
70
0
0
ENDTAB
0
TABLE
2
VIEW
5
6
100
AcDbSymbolTable
70
0
0
ENDTAB
0
TABLE
2
UCS
5
7
100
AcDbSymbolTable
70
0
0
ENDTAB
0
TABLE
2
APPID
5
9
100
AcDbSymbolTable
70
2
0
APPID
5
12
100
AcDbSymbolTableRecord
100
AcDbRegAppTableRecord
2
ACAD
70
0
0
ENDTAB
0
TABLE
2
DIMSTYLE
5
A
100
AcDbSymbolTable
70
1
0
ENDTAB
0
TABLE
2
BLOCK_RECORD
5
1
100
AcDbSymbolTable
70
1
0
BLOCK_RECORD
5
1F
100
AcDbSymbolTableRecord
100
AcDbBlockTableRecord
2
*MODEL_SPACE
0
BLOCK_RECORD
5
1B
100
AcDbSymbolTableRecord
100
AcDbBlockTableRecord
2
*PAPER_SPACE
0
ENDTAB
0
ENDSEC
0
SECTION
2
BLOCKS
0
BLOCK
5
20
100
AcDbEntity
100
AcDbBlockBegin
2
*MODEL_SPACE
0
ENDBLK
5
21
100
AcDbEntity
100
AcDbBlockEnd
0
BLOCK
5
1C
100
AcDbEntity
100
AcDbBlockBegin
2
*PAPER_SPACE
0
ENDBLK
5
1D
100
AcDbEntity
100
AcDbBlockEnd
0
ENDSEC
0
SECTION
2
ENTITIES
0
CIRCLE
5
100
100
AcDbEntity
8
0
100
AcDbCircle
10
-120.56759834289551
20
-290.94451904296909
30
0
40
1.5500000000000114
210
2.290048002032089e-60
220
-1.0442459754958625e-97
230
1
0
LWPOLYLINE
5
101
100
AcDbEntity
8
0
100
AcDbPolyline
90
8
70
1
43
0.0
10
-123.06759834289551
20
-325.94451904296903
42
0.41421356237310125
10
-118.06759834289551
20
-330.94451904296903
10
31.932401657104492
20
-330.94451904296903
42
0.41421356237310181
10
36.932401657104464
20
-325.94451904296903
10
36.932401657104492
20
-175.94451904296903
42
0.41421356237308982
10
31.932401657104492
20
-170.94451904296909
10
-118.06759834289551
20
-170.94451904296906
42
0.41421356237308982
10
-123.06759834289552
20
-175.94451904296903
0
CIRCLE
5
102
100
AcDbEntity
8
0
100
AcDbCircle
10
-120.56759834289551
20
-210.94451904296906
30
0
40
1.5500000000000114
210
1.2446030555722283e-60
220
-2.1466335810522106e-90
230
1
0
CIRCLE
5
103
100
AcDbEntity
8
0
100
AcDbCircle
10
-120.56759834289551
20
-220.94451904296906
30
0
40
1.5499999999999934
210
2.6051937293176836e-60
220
7.8886090522101198e-31
230
1
0
CIRCLE
5
104
100
AcDbEntity
8
0
100
AcDbCircle
10
-120.56759834289552
20
-280.94451904296909
30
0
40
1.5499999999999934
210
2.6051937293176836e-60
220
7.8886090522101198e-31
230
1
0
CIRCLE
5
105
100
AcDbEntity
8
0
100
AcDbCircle
10
34.432401657104492
20
-210.94451904296901
30
0
40
1.5499999999999536
210
2.2900330910233633e-60
220
-1.0442391761794994e-97
230
1
0
CIRCLE
5
106
100
AcDbEntity
8
0
100
AcDbCircle
10
34.432401657104386
20
-280.94451904296909
30
0
40
1.5499999999999847
210
1.2170798833972053e-34
220
-2.0268451640335151e-50
230
1
0
CIRCLE
5
107
100
AcDbEntity
8
0
100
AcDbCircle
10
32.882401657104424
20
-220.9445190429692
30
0
40
1.5499999999999934
210
-9.8185755955940751e-33
220
7.8886090522101198e-31
230
1
0
CIRCLE
5
108
100
AcDbEntity
8
0
100
AcDbCircle
10
34.432401657104343
20
-290.9445190429692
30
0
40
1.5500000000000203
210
-9.8185755955805862e-33
220
7.8886090522101181e-31
230
1
0
CIRCLE
5
109
100
AcDbEntity
8
0
100
AcDbCircle
10
-103.06759834289552
20
-190.94451904296906
30
0
40
7.5
210
5.2612552978327919e-45
220
-6.0217356141977216e-75
230
1
0
CIRCLE
5
110
100
AcDbEntity
8
0
100
AcDbCircle
10
16.932401657103988
20
-190.94451904296906
30
0
40
7.5
210
5.2612552978327919e-45
220
-6.0217356141977216e-75
230
1
0
CIRCLE
5
111
100
AcDbEntity
8
0
100
AcDbCircle
10
-103.06759834289585
20
-310.94451904296909
30
0
40
7.5
210
5.2427540327576934e-45
220
-5.9794590720533765e-75
230
1
0
CIRCLE
5
112
100
AcDbEntity
8
0
100
AcDbCircle
10
16.932401657104201
20
-310.94451904296909
30
0
40
7.4999999999999982
210
4.8727287634982103e-45
220
-5.1652031020189952e-75
230
1
0
ENDSEC
0
SECTION
2
OBJECTS
0
DICTIONARY
5
C
100
AcDbDictionary
3
ACAD_GROUP
350
D
3
ACAD_MLINESTYLE
350
17
0
DICTIONARY
5
D
100
AcDbDictionary
0
DICTIONARY
5
1A
330
C
100
AcDbDictionary
0
DICTIONARY
5
17
100
AcDbDictionary
0
ENDSEC
0
EOF
